<?xml version="1.0" encoding="utf-8"?>
<!-- Generator: Adobe Illustrator 17.0.0, SVG Export Plug-In . SVG Version: 6.00 Build 0)  -->
<!DOCTYPE svg PUBLIC "-//W3C//DTD SVG 1.1//EN" "http://www.w3.org/Graphics/SVG/1.1/DTD/svg11.dtd">
<svg version="1.1" id="Calque_2" xmlns="http://www.w3.org/2000/svg" xmlns:xlink="http://www.w3.org/1999/xlink" x="0px" y="0px"
	 width="133.688px" height="56.795px" viewBox="0 0 133.688 56.795" enable-background="new 0 0 133.688 56.795"
	 xml:space="preserve">
<text transform="matrix(1 0 0 1 61.877 34.7774)" fill="#EDBC4C" font-family="'Dosis-Regular'" font-size="20.0616">w</text>
<text transform="matrix(1 0 0 1 62.8418 41.3237)" fill="#EDBC4C" font-family="'Dosis-Regular'" font-size="21.3078">A            </text>
<text transform="matrix(1 0 0 1 12.312 41.3237)" fill="#EDBC4C" font-family="'Dosis-Regular'" font-size="21.31">walk</text>
<text transform="matrix(1 0 0 1 75.728 41.3237)" fill="#EDBC4C" font-family="'Dosis-Regular'" font-size="21.31">bout</text>
<text transform="matrix(1 0 0 1 12.4585 16.8965)" fill="#EDBC4C" font-family="'Dosis-SemiBold'" font-size="6">Nos destinations</text>
<text transform="matrix(0.9928 0 0 1 76.0879 16.8965)" fill="#EDBC4C" font-family="'Dosis-SemiBold'" font-size="6">Vos expériences</text>
<polygon fill="none" stroke="#EDBC4C" stroke-miterlimit="10" points="68.542,23.247 71.875,12.956 65.208,12.956 "/>
<line fill="none" stroke="#EDBC4C" stroke-miterlimit="10" x1="12.917" y1="21.235" x2="60.984" y2="21.235"/>
<line fill="none" stroke="#EDBC4C" stroke-miterlimit="10" x1="76.094" y1="21.235" x2="120.915" y2="21.235"/>
<path fill="none" stroke="#EDBC4C" stroke-miterlimit="10" d="M75.476,44.091c0,0-0.726-3.953-6.934-3.953
	c-6.209,0-6.934,3.953-6.934,3.953H75.476z"/>
</svg>
