<?xml version="1.0" encoding="utf-8"?>
<!-- Generator: Adobe Illustrator 17.0.0, SVG Export Plug-In . SVG Version: 6.00 Build 0)  -->
<!DOCTYPE svg PUBLIC "-//W3C//DTD SVG 1.1//EN" "http://www.w3.org/Graphics/SVG/1.1/DTD/svg11.dtd">
<svg version="1.1" id="Calque_1" xmlns="http://www.w3.org/2000/svg" xmlns:xlink="http://www.w3.org/1999/xlink" x="0px" y="0px"
	 width="205.003px" height="57.296px" viewBox="0 0 205.003 57.296" enable-background="new 0 0 205.003 57.296"
	 xml:space="preserve">
<g>
	<g>
		<path fill="#EDBC4C" d="M93.471,27.693c0-1.054,1.974-1.588,2.359-0.517c0.106,0.295,0.212,0.59,0.318,0.885
			c0.545,1.517,1.091,3.034,1.636,4.552c0.966,2.688,1.933,5.376,2.899,8.064c0.672-2.119,1.343-4.238,2.015-6.358
			c0.45-1.42,0.9-2.84,1.35-4.26c0.17-0.537,0.303-1.663,0.755-2.073c1.097-0.996,1.543,0.746,1.753,1.443
			c0.393,1.306,0.786,2.612,1.179,3.918c0.746,2.48,1.492,4.959,2.238,7.439c0.014,0.045,0.027,0.09,0.041,0.135
			c1.619-4.479,3.238-8.957,4.857-13.436c0.077-0.212,0.146-0.535,0.304-0.687c0.801-0.771,2.697,0.37,1.976,1.464
			c-0.171,0.531-0.388,1.052-0.581,1.575c-1.032,2.799-2.064,5.598-3.096,8.396c-0.683,1.853-1.367,3.706-2.05,5.559
			c-0.221,0.6-0.391,1.134-1.181,1.134c-0.78,0-0.906-0.963-1.091-1.54c-1.215-3.797-2.431-7.594-3.646-11.391
			c-0.689,2.152-1.378,4.304-2.067,6.456c-0.449,1.402-0.898,2.805-1.347,4.207c-0.188,0.589-0.391,1.913-1.037,2.181
			c-1.154,0.479-1.495-0.636-1.795-1.441c-0.403-1.082-0.806-2.164-1.209-3.246c-1.095-2.942-2.19-5.883-3.286-8.825
			c-0.285-0.767-0.571-1.533-0.856-2.3C93.769,28.654,93.471,28.091,93.471,27.693z"/>
	</g>
	<g>
		<path fill="#EDBC4C" d="M95.574,55.882c0-0.379,0.2-0.8,0.309-1.155c0.268-0.87,0.536-1.741,0.804-2.612
			c0.861-2.798,1.723-5.596,2.584-8.394c1.54-5.004,3.081-10.008,4.621-15.012c0.264-0.857,0.664-1.414,1.713-1.414
			c1.043,0,1.485,0.552,1.75,1.416c0.592,1.933,1.184,3.866,1.777,5.799c1.793,5.854,3.587,11.708,5.38,17.561
			c0.378,1.235,0.774,2.469,1.122,3.712c0.244,0.995-1.573,1.502-2.228,1.056c-0.374-0.254-0.453-0.781-0.573-1.184
			c-0.429-1.436-0.858-2.872-1.287-4.308c-0.231-0.773-0.09-1.231-0.891-1.231c-1.287,0-2.574,0-3.86,0c-1.569,0-3.137,0-4.706,0
			c-0.176,0-2.012-0.117-2.057,0.03c-0.447,1.487-0.894,2.973-1.341,4.46c-0.17,0.565-0.34,1.13-0.51,1.695
			C97.823,57.492,95.574,57.089,95.574,55.882z M100.733,47.817c3.253,0,6.506,0,9.759,0c-1.621-5.427-3.242-10.855-4.863-16.282
			C103.996,36.962,102.365,42.39,100.733,47.817z"/>
	</g>
	<g>
		<path fill="#EDBC4C" d="M0,28.622c0-1.016,1.783-1.561,2.214-0.556c0.067,0.157,0.106,0.344,0.153,0.51
			c0.198,0.702,0.396,1.404,0.593,2.106c0.768,2.725,1.536,5.451,2.304,8.176c1.327,4.711,2.654,9.421,3.981,14.132
			c0.007,0.023,0.013,0.047,0.02,0.07c1.272-4.746,2.545-9.492,3.817-14.238c0.217-0.809,0.307-1.693,1.341-1.8
			c1.279-0.132,1.545,0.802,1.806,1.775c0.732,2.731,1.464,5.461,2.196,8.192c0.544,2.027,1.087,4.055,1.631,6.082
			c1.216-4.316,2.432-8.631,3.648-12.947c0.809-2.872,1.619-5.745,2.428-8.617c0.248-0.879,0.495-1.759,0.743-2.638
			c0.167-0.593,0.238-1.215,0.996-1.318c0.761-0.103,2.052,0.338,1.767,1.323c-0.036,0.126-0.073,0.251-0.109,0.377
			c-0.205,0.708-0.41,1.416-0.615,2.124c-0.765,2.643-1.53,5.287-2.295,7.93c-1.538,5.315-3.076,10.629-4.614,15.944
			c-0.088,0.303-0.176,0.607-0.263,0.91c-0.321,1.111-1.948,1.508-2.816,0.74c-0.35-0.31-0.428-0.916-0.545-1.348
			c-0.229-0.846-0.459-1.692-0.688-2.538c-0.998-3.681-1.995-7.362-2.993-11.042c-1.25,4.612-2.5,9.224-3.75,13.836
			c-0.057,0.209-0.101,0.436-0.176,0.639c-0.362,0.985-2.022,1.122-2.597,0.262c-0.238-0.355-0.323-0.9-0.441-1.304
			c-0.63-2.164-1.259-4.329-1.889-6.493c-1.271-4.368-2.541-8.735-3.812-13.103c-0.486-1.67-0.972-3.34-1.458-5.01
			C0.386,30.131,0,29.328,0,28.622z"/>
		<path fill="#EDBC4C" d="M30.203,55.881c0-0.379,0.199-0.8,0.309-1.155c0.268-0.871,0.536-1.741,0.804-2.612
			c0.861-2.798,1.723-5.597,2.584-8.395c1.541-5.004,3.081-10.009,4.622-15.013c0.264-0.858,0.663-1.415,1.712-1.415
			c1.044,0,1.485,0.552,1.75,1.417c0.592,1.933,1.185,3.866,1.777,5.8c1.794,5.854,3.587,11.708,5.381,17.563
			c0.378,1.235,0.779,2.467,1.122,3.711c0.259,0.995-1.579,1.499-2.228,1.057c-0.374-0.254-0.453-0.781-0.573-1.184
			c-0.429-1.436-0.858-2.872-1.287-4.308c-0.231-0.773-0.091-1.231-0.891-1.231c-1.287,0-2.574,0-3.861,0c-1.569,0-3.137,0-4.706,0
			c-0.176,0-2.012-0.117-2.057,0.03c-0.447,1.487-0.894,2.973-1.341,4.46c-0.17,0.565-0.34,1.13-0.51,1.695
			C32.452,57.492,30.203,57.088,30.203,55.881z M35.362,47.815c3.253,0,6.506,0,9.759,0c-1.621-5.428-3.242-10.856-4.864-16.283
			C38.626,36.96,36.994,42.388,35.362,47.815z"/>
		<path fill="#EDBC4C" d="M54.194,55.962c0-9.131,0-18.262,0-27.392c0-1.406,2.661-1.443,2.661-0.067c0,0.417,0,0.834,0,1.252
			c0,2.486,0,4.973,0,7.459c0,5.526,0,11.052,0,16.578c0,0.184-0.12,0.758,0.11,0.758c1.016,0,2.032,0,3.048,0
			c2.708,0,5.416,0,8.124,0c1.406,0,1.542,2.46,0.195,2.46c-0.797,0-1.593,0-2.39,0c-3.003,0-6.006,0-9.009,0
			C56.063,57.01,54.194,57.282,54.194,55.962z"/>
		<path fill="#EDBC4C" d="M72.864,55.962c0-9.131,0-18.262,0-27.392c0-0.906,0.843-1.094,1.61-1.024
			c0.788,0.072,1.051,0.533,1.051,1.236c0,1.505,0,3.011,0,4.516c0,3.159,0,6.318,0,9.477c3.066-3.904,6.132-7.808,9.198-11.712
			c0.665-0.846,1.33-1.693,1.994-2.539c0.602-0.767,1.294-1.446,2.275-0.547c0.978,0.893,0.187,1.652-0.406,2.388
			c-0.844,1.048-1.688,2.096-2.532,3.144c-1.726,2.144-3.452,4.287-5.179,6.431c-0.322,0.4-0.26,0.352,0.027,0.784
			c0.569,0.856,1.138,1.712,1.707,2.568c1.748,2.629,3.496,5.258,5.244,7.888c0.675,1.015,1.35,2.03,2.025,3.046
			c0.375,0.563,1.053,1.274,0.685,1.994c-0.536,1.05-1.849,1.123-2.48,0.176c-0.248-0.373-0.497-0.747-0.745-1.12
			c-1.083-1.626-2.165-3.253-3.248-4.879c-1.754-2.634-3.507-5.269-5.261-7.903c-0.938,1.189-1.875,2.378-2.813,3.567
			c-0.207,0.262-0.494,0.479-0.494,0.819c0,0.66,0,1.32,0,1.98c0,1.909,0,3.818,0,5.727c0,0.457,0,0.913,0,1.37
			C75.525,57.355,72.864,57.377,72.864,55.962z"/>
	</g>
	<g>
		<path fill="#EDBC4C" d="M122.176,56.002c0-9.131,0-18.262,0-27.392c0-1.472,2.395-1.076,3.349-1.076
			c1.613,0,3.227-0.022,4.84,0.003c3.391,0.053,6.922,1.07,7.674,4.807c0.613,3.045-0.057,7.31-3.241,8.699
			c3.502,1.402,4.22,4.573,4.15,8.006c-0.072,3.519-1.55,6.59-5.137,7.6c-2.011,0.566-4.265,0.363-6.335,0.363
			c-1.074,0-2.148,0-3.223,0C123.484,57.01,122.176,57.125,122.176,56.002z M124.797,39.872c1.204,0,2.408,0,3.611,0
			c1.547,0,3.177,0.112,4.643-0.464c2.284-0.897,2.732-3.525,2.454-5.722c-0.33-2.614-2.473-3.546-4.88-3.675
			c-1.312-0.07-2.638-0.018-3.951-0.018c-0.576,0-1.152,0-1.728,0c-0.244,0-0.151,0.165-0.151,0.393c0,2.777,0,5.553,0,8.33
			C124.797,39.101,124.797,39.486,124.797,39.872z M124.797,54.55c2.388,0,4.983,0.294,7.345-0.122
			c3.97-0.699,4.743-5.159,3.933-8.548c-0.867-3.624-4.309-3.71-7.375-3.71c-1.289,0-2.579,0-3.868,0
			c-0.076,0-0.035,1.752-0.035,1.897C124.797,47.562,124.797,51.056,124.797,54.55z"/>
		<path fill="#EDBC4C" d="M143.548,48.623c0-2.283,0-4.565,0-6.848c0-2.504-0.221-5.156,0.131-7.646
			c0.327-2.317,1.422-4.333,3.505-5.497c2.237-1.251,5.18-1.401,7.625-0.751c2.233,0.594,4.088,2.074,4.897,4.266
			c0.538,1.456,0.616,2.999,0.616,4.534c0,2.488,0,4.976,0,7.464c0,2.197,0.184,4.534-0.165,6.713
			c-0.745,4.648-4.794,6.701-9.239,6.354c-2.081-0.163-4.198-0.928-5.588-2.549C143.916,53.013,143.548,50.731,143.548,48.623z
			 M146.209,48.623c0,1.845,0.396,3.894,1.935,5.088c1.493,1.158,3.715,1.292,5.503,0.918c3.352-0.702,4.014-3.776,4.014-6.755
			c0-2.915,0-5.829,0-8.744c0-2.438,0.387-5.47-1.299-7.455c-1.81-2.131-5.935-2.272-8.125-0.678
			c-1.906,1.388-2.029,3.825-2.029,5.979C146.209,40.858,146.209,44.741,146.209,48.623z"/>
		<path fill="#EDBC4C" d="M166.007,48.623c0-4.929,0-9.858,0-14.787c0-1.778,0-3.555,0-5.333c0-1.388,2.662-1.336,2.662,0.09
			c0,0.701,0,1.402,0,2.103c0,5.654,0,11.307,0,16.961c0,0.853-0.018,1.706,0.117,2.551c0.379,2.385,1.959,4.106,4.378,4.486
			c2.356,0.371,5.093-0.203,6.329-2.435c0.678-1.224,0.789-2.627,0.789-3.999c0-5.476,0-10.952,0-16.428c0-0.949,0-1.898,0-2.847
			c0-1.111,0.608-1.665,1.856-1.406c0.913,0.19,0.805,0.999,0.805,1.709c0,1.059,0,2.118,0,3.176c0,5.331,0,10.662,0,15.993
			c0,1.703-0.193,3.459-0.992,4.991c-1.082,2.074-3.247,3.274-5.499,3.647c-2.509,0.416-5.35,0.109-7.466-1.394
			c-1.903-1.352-2.728-3.494-2.925-5.76C166.023,49.504,166.007,49.063,166.007,48.623z"/>
		<path fill="#EDBC4C" d="M186.491,28.763c0-1.313,1.048-1.23,1.961-1.23c1.219,0,2.439,0,3.658,0c3.084,0,6.168,0,9.253,0
			c0.752,0,1.504,0,2.256,0c0.811,0,1.167,0.787,1.03,1.519c-0.143,0.765-0.664,0.94-1.325,0.94c-0.637,0-6.389-0.076-6.389,0.072
			c0,4.868,0,9.737,0,14.605c0,2.863,0,5.726,0,8.589c0,0.773,0,1.546,0,2.318c0,1.167-1.207,1.939-2.278,1.151
			c-0.496-0.365-0.384-1.065-0.384-1.607c0-0.938,0-1.876,0-2.815c0-3.01,0-6.02,0-9.031c0-0.85,0.008-13.283-0.008-13.283
			c-1.357,0-2.715,0-4.072,0C189.066,29.992,186.491,30.512,186.491,28.763z"/>
	</g>
	<g>
		<path fill="#EDBC4C" d="M0.14,10.392c0-2.481,0-4.963,0-7.444c0-0.969,1.272-0.24,1.514,0.232c0.244,0.475,0.487,0.95,0.731,1.425
			c0.595,1.161,1.19,2.322,1.785,3.483c0-1.734,0-3.468,0-5.201c0-0.546,1.204-0.548,1.204-0.01c0.059,0.156,0,0.45,0,0.613
			c0,1.147,0,2.294,0,3.441c0,1.02,0,2.039,0,3.059c0,0.897-0.936,1.083-1.38,0.237C3.11,8.544,2.227,6.863,1.344,5.181
			c0,1.126,0,2.251,0,3.377c0,0.563,0,1.126,0,1.688C1.344,10.903,0.14,11,0.14,10.392z"/>
		<path fill="#EDBC4C" d="M7.077,8.325c0-1.277-0.15-2.648,0.043-3.913c0.217-1.419,1.482-2.017,2.822-1.91
			c1.436,0.115,2.233,1.117,2.233,2.519c0.046,1.259,0.149,2.664-0.044,3.913c-0.219,1.42-1.493,2.017-2.832,1.91
			C7.863,10.729,7.077,9.724,7.077,8.325z M8.281,8.325c0,0.995,0.634,1.603,1.645,1.442c0.827-0.131,1.046-0.839,1.046-1.573
			c0-1.052,0.059-2.122,0-3.173c0-1.048-0.785-1.692-1.833-1.406C8.425,3.811,8.281,4.503,8.281,5.153
			C8.281,6.21,8.281,7.268,8.281,8.325z"/>
		<path fill="#EDBC4C" d="M13.446,9.541c0-0.931,0.787-0.567,1.169-0.188c0.512,0.507,1.493,0.605,2.121,0.287
			c0.636-0.322,0.787-1.183,0.39-1.756c-0.429-0.618-1.248-0.831-1.898-1.121c-1.365-0.61-2.31-2.469-0.961-3.673
			c0.632-0.564,4.519-1.132,4.039,0.389c-0.35,1.11-2.63-0.888-3.355,0.58c-0.711,1.439,2.116,1.981,2.861,2.598
			c1.19,0.986,0.922,3.209-0.42,3.909C16.512,11.025,13.446,11.097,13.446,9.541z"/>
		<path fill="#EDBC4C" d="M22.518,10.403c0-1.859,0-3.717,0-5.576c0-0.528-0.185-1.449,0-1.951c0-0.654,2.129-0.386,2.52-0.386
			c3.177,0,2.577,3.45,2.577,5.639c0,1.621-0.903,2.66-2.577,2.66C24.646,10.789,22.518,11.057,22.518,10.403z M23.721,9.722
			c0.616,0,1.454,0.135,2.029-0.132c0.748-0.347,0.662-1.261,0.662-1.952c0-1.274,0.54-4.081-1.382-4.081
			c-0.261,0-1.309-0.158-1.309,0.126c0,0.631,0,1.262,0,1.894C23.721,6.959,23.721,8.34,23.721,9.722z"/>
		<path fill="#EDBC4C" d="M29.307,10.392c0-2.397,0-4.795,0-7.192c0-1.053,1.503-0.709,2.262-0.709c0.677,0,1.354,0,2.032,0
			c0.675,0,0.984,1.067,0.282,1.067c-0.374,0.146-1.095,0-1.492,0c-0.622,0-1.244,0-1.865,0c-0.03,0-0.015,1.379-0.015,1.494
			c0,0.532-0.251,1.106,0.347,1.106c0.361,0,1.432-0.199,1.692,0.142c0.654,0.868-0.755,0.812-1.164,0.812
			c-0.595,0-0.874-0.207-0.874,0.408c0,0.71,0,1.42,0,2.13c0,0.158,1.846,0.073,2.072,0.073c0.414,0,0.829,0,1.243,0
			c0.484,0,0.645,0.803,0.227,1.028c-0.57,0.307-1.864,0.04-2.484,0.04C31.22,10.789,29.307,11.039,29.307,10.392z"/>
		<path fill="#EDBC4C" d="M35.108,9.541c0-0.931,0.787-0.567,1.169-0.188c0.512,0.507,1.493,0.605,2.121,0.287
			c0.636-0.322,0.787-1.183,0.39-1.756c-0.429-0.618-1.248-0.831-1.898-1.121c-1.365-0.61-2.31-2.469-0.961-3.673
			c0.632-0.564,4.519-1.132,4.039,0.389c-0.35,1.11-2.63-0.888-3.355,0.58c-0.711,1.439,2.116,1.981,2.861,2.598
			c1.19,0.986,0.922,3.209-0.42,3.909C38.174,11.025,35.108,11.097,35.108,9.541z"/>
		<path fill="#EDBC4C" d="M41.034,3.04c0-0.962,2.353-0.55,2.949-0.55c0.637,0,1.275,0,1.912,0c0.531,0,1.024,0.72,0.411,1.071
			c-0.394,0.226-1.268,0.041-1.705,0.041c-0.337,0-0.206,0.25-0.206,0.56c0,1.43,0,2.86,0,4.29c0,0.663,0.395,2.621-0.833,2.31
			c-0.733-0.185-0.371-2.343-0.371-2.875c0-1.342,0-2.683,0-4.025C43.191,2.995,41.034,4.306,41.034,3.04z"/>
		<path fill="#EDBC4C" d="M47.733,10.392c0-1.482,0-2.964,0-4.447c0-0.855,0-1.711,0-2.566c0-0.165,0-0.331,0-0.496
			c0-0.543,1.203-0.545,1.203-0.007c0.139,0.368,0,1.058,0,1.444c0,1.001,0,2.002,0,3.002c0,0.855,0,1.711,0,2.566
			c0,0.165,0,0.331,0,0.496C48.936,10.938,47.733,10.935,47.733,10.392z"/>
		<path fill="#EDBC4C" d="M50.719,10.392c0-2.481,0-4.963,0-7.444c0-0.969,1.272-0.24,1.514,0.232
			c0.244,0.475,0.487,0.95,0.731,1.425c0.595,1.161,1.19,2.322,1.785,3.483c0-1.734,0-3.468,0-5.201c0-0.546,1.204-0.548,1.204-0.01
			c0.059,0.156,0,0.45,0,0.613c0,1.147,0,2.294,0,3.441c0,1.02,0,2.039,0,3.059c0,0.897-0.936,1.083-1.38,0.237
			c-0.883-1.682-1.767-3.364-2.65-5.046c0,1.126,0,2.251,0,3.377c0,0.563,0,1.126,0,1.688C51.922,10.903,50.719,11,50.719,10.392z"
			/>
		<path fill="#EDBC4C" d="M57.148,10.291c0-0.771,0.516-1.749,0.739-2.475c0.413-1.347,0.826-2.695,1.239-4.042
			c0.094-0.306,0.187-0.612,0.281-0.918c0.18-0.587,1.458-0.63,1.642-0.027c0.314,1.028,0.628,2.056,0.942,3.084
			c0.384,1.257,0.768,2.514,1.152,3.771c0.105,0.343,0.314,0.712-0.096,0.952c-0.95,0.556-1.076-0.336-1.268-0.999
			c-0.157-0.543-0.056-0.719-0.607-0.719c-0.709,0-1.418,0-2.126,0c-0.49,0-0.455,0.663-0.576,1.087
			c-0.054,0.188-0.086,0.524-0.235,0.675C57.953,10.96,57.148,10.718,57.148,10.291z M59.053,7.962c0.751,0,1.502,0,2.253,0
			c-0.379-1.299-0.759-2.598-1.138-3.896C59.796,5.365,59.425,6.663,59.053,7.962z"/>
		<path fill="#EDBC4C" d="M63.15,3.04c0-0.962,2.353-0.55,2.949-0.55c0.637,0,1.275,0,1.912,0c0.531,0,1.024,0.72,0.411,1.071
			c-0.394,0.226-1.268,0.041-1.705,0.041c-0.337,0-0.206,0.25-0.206,0.56c0,1.43,0,2.86,0,4.29c0,0.663,0.395,2.621-0.833,2.31
			c-0.733-0.185-0.371-2.343-0.371-2.875c0-1.342,0-2.683,0-4.025C65.307,2.995,63.15,4.306,63.15,3.04z"/>
		<path fill="#EDBC4C" d="M69.849,10.392c0-1.482,0-2.964,0-4.447c0-0.855,0-1.711,0-2.566c0-0.165,0-0.331,0-0.496
			c0-0.543,1.203-0.545,1.203-0.007c0.139,0.368,0,1.058,0,1.444c0,1.001,0,2.002,0,3.002c0,0.855,0,1.711,0,2.566
			c0,0.165,0,0.331,0,0.496C71.052,10.938,69.849,10.935,69.849,10.392z"/>
		<path fill="#EDBC4C" d="M72.755,8.325c0-1.277-0.15-2.648,0.043-3.913c0.217-1.419,1.482-2.017,2.821-1.91
			c1.437,0.115,2.233,1.117,2.233,2.519c0.046,1.259,0.149,2.664-0.044,3.913c-0.219,1.42-1.493,2.017-2.832,1.91
			C73.541,10.729,72.755,9.724,72.755,8.325z M73.959,8.325c0,0.994,0.633,1.602,1.645,1.442c0.827-0.131,1.046-0.838,1.046-1.573
			c0-1.052,0.059-2.122,0-3.173c0-1.048-0.784-1.693-1.833-1.406c-0.713,0.195-0.857,0.888-0.857,1.537
			C73.959,6.21,73.959,7.268,73.959,8.325z"/>
		<path fill="#EDBC4C" d="M79.545,10.392c0-2.481,0-4.963,0-7.444c0-0.969,1.272-0.24,1.514,0.232
			c0.244,0.475,0.487,0.95,0.731,1.425c0.595,1.161,1.191,2.322,1.786,3.483c0-1.734,0-3.468,0-5.201
			c0-0.546,1.203-0.548,1.203-0.01c0.059,0.156,0,0.45,0,0.613c0,1.147,0,2.294,0,3.441c0,1.02,0,2.039,0,3.059
			c0,0.897-0.935,1.083-1.38,0.237c-0.883-1.682-1.767-3.364-2.65-5.046c0,1.126,0,2.251,0,3.377c0,0.563,0,1.126,0,1.688
			C80.748,10.903,79.545,11,79.545,10.392z"/>
		<path fill="#EDBC4C" d="M86.141,9.541c0-0.932,0.786-0.565,1.169-0.188c0.51,0.508,1.493,0.605,2.121,0.287
			c0.635-0.322,0.788-1.183,0.39-1.756c-0.429-0.618-1.248-0.831-1.898-1.121c-1.365-0.609-2.31-2.469-0.962-3.673
			C87.592,2.526,91.484,1.96,91,3.479c-0.354,1.111-2.63-0.89-3.355,0.58c-0.71,1.439,2.115,1.98,2.86,2.598
			c1.193,0.984,0.92,3.209-0.42,3.909C89.206,11.026,86.141,11.097,86.141,9.541z"/>
	</g>
	<g>
		<path fill="#EDBC4C" d="M119.938,2.99c0-0.467,1.004-0.743,1.161-0.25c0.056,0.074,0.071,0.246,0.095,0.332
			c0.215,0.747,0.429,1.494,0.644,2.241c0.373,1.299,0.747,2.598,1.12,3.897c0.6-2.099,1.199-4.198,1.799-6.297
			c0.147-0.513,0.819-0.591,1.144-0.116c0.15,0.219-0.073,0.657-0.138,0.872c-0.39,1.285-0.779,2.57-1.169,3.854
			c-0.293,0.966-0.586,1.931-0.878,2.897c-0.176,0.581-1.331,0.617-1.514,0.021c-0.096-0.312-0.191-0.624-0.287-0.937
			c-0.413-1.347-0.826-2.694-1.239-4.041C120.454,4.738,119.938,3.761,119.938,2.99z"/>
		<path fill="#EDBC4C" d="M126.892,8.326c0-1.277-0.149-2.647,0.043-3.913c0.214-1.412,1.465-2.018,2.801-1.91
			c1.433,0.116,2.217,1.125,2.217,2.519c0.045,1.26,0.148,2.663-0.043,3.913c-0.216,1.413-1.475,2.018-2.811,1.91
			C127.666,10.729,126.892,9.717,126.892,8.326z M128.087,8.326c0,0.989,0.623,1.603,1.633,1.442
			c0.824-0.132,1.039-0.842,1.039-1.573c0-1.052,0.059-2.122,0-3.173c0-1.042-0.773-1.694-1.821-1.406
			c-0.71,0.196-0.851,0.891-0.851,1.537C128.087,6.211,128.087,7.268,128.087,8.326z"/>
		<path fill="#EDBC4C" d="M133.046,9.541c0-0.704,0.594-0.714,0.991-0.351c0.563,0.515,1.272,0.773,2.035,0.546
			c0.705-0.211,1.027-0.956,0.746-1.635c-0.309-0.748-1.247-1.002-1.912-1.298c-1.379-0.613-2.441-2.457-1.045-3.713
			c0.631-0.567,4.486-1.132,4.01,0.389c-0.346,1.107-2.611-0.885-3.331,0.58c-0.706,1.437,2.096,1.978,2.841,2.598
			c1.179,0.987,0.918,3.207-0.418,3.909C136.084,11.029,133.046,11.092,133.046,9.541z"/>
		<path fill="#EDBC4C" d="M141.714,10.392c0-2.397,0-4.795,0-7.192c0-1.051,1.487-0.709,2.245-0.709c0.672,0,1.345,0,2.017,0
			c0.673,0,0.976,1.067,0.279,1.067c-0.37,0.145-1.088,0-1.481,0c-0.617,0-1.235,0-1.852,0c-0.03,0-0.014,1.38-0.014,1.494
			c0,0.529-0.251,1.106,0.344,1.106c0.358,0,1.422-0.198,1.68,0.142c0.645,0.868-0.742,0.812-1.156,0.812
			c-0.594,0-0.868-0.206-0.868,0.408c0,0.71,0,1.42,0,2.13c0,0.158,1.832,0.073,2.057,0.073c0.411,0,0.823,0,1.234,0
			c0.483,0,0.639,0.803,0.225,1.028c-0.563,0.305-1.851,0.04-2.465,0.04C143.61,10.79,141.714,11.039,141.714,10.392z"/>
		<path fill="#EDBC4C" d="M147.18,10.234c0-0.357,0.409-0.826,0.573-1.11c0.367-0.633,0.735-1.267,1.102-1.9
			c0.108-0.186,0.403-0.482,0.285-0.689c-0.313-0.552-0.626-1.104-0.939-1.656c-0.28-0.494-0.561-0.989-0.841-1.483
			c-0.434-0.764,0.677-1.315,1.067-0.586c0.516,0.964,1.032,1.929,1.548,2.893c0.341-0.628,0.682-1.256,1.022-1.883
			c0.259-0.476,0.981-2.18,1.691-1.028c0.268,0.435-0.639,1.578-0.831,1.916c-0.24,0.422-1.101,1.436-1.093,1.927
			c0.007,0.442,0.757,1.304,0.975,1.68c0.269,0.464,1.054,1.345,1.054,1.919c0,0.612-0.907,0.757-1.178,0.267
			c-0.174-0.315-0.348-0.63-0.522-0.946c-0.373-0.674-0.745-1.349-1.118-2.023c-0.367,0.674-0.735,1.349-1.102,2.023
			c-0.172,0.315-0.343,0.63-0.515,0.946C148.087,10.997,147.18,10.84,147.18,10.234z"/>
		<path fill="#EDBC4C" d="M153.842,10.392c0-1.796,0-3.593,0-5.389c0-0.707,0-1.413,0-2.12c0-0.68,2.072-0.393,2.478-0.393
			c1.641,0,2.65,0.869,2.65,2.543c0,1.753-1.12,2.554-2.791,2.554c-0.107,0-1.142-0.018-1.142,0.017c0,0.462,0,0.924,0,1.385
			c0,0.446,0,0.891,0,1.337C155.036,10.931,153.842,10.958,153.842,10.392z M155.036,6.635c0.767,0,2.036,0.229,2.515-0.531
			c0.683-1.084,0.066-2.545-1.239-2.545c-0.414,0-0.829,0-1.243,0c-0.072,0-0.033,0.559-0.033,0.633
			C155.036,5.005,155.036,5.82,155.036,6.635z"/>
		<path fill="#EDBC4C" d="M160.097,10.392c0-2.397,0-4.795,0-7.192c0-1.051,1.487-0.709,2.245-0.709c0.672,0,1.345,0,2.017,0
			c0.673,0,0.976,1.067,0.279,1.067c-0.37,0.145-1.088,0-1.481,0c-0.617,0-1.235,0-1.852,0c-0.03,0-0.014,1.38-0.014,1.494
			c0,0.529-0.251,1.106,0.344,1.106c0.358,0,1.422-0.198,1.68,0.142c0.645,0.868-0.742,0.812-1.156,0.812
			c-0.594,0-0.868-0.206-0.868,0.408c0,0.71,0,1.42,0,2.13c0,0.158,1.832,0.073,2.057,0.073c0.411,0,0.823,0,1.234,0
			c0.483,0,0.639,0.803,0.225,1.028c-0.563,0.305-1.851,0.04-2.465,0.04C161.993,10.79,160.097,11.039,160.097,10.392z
			 M161.687,0.969c0-0.486,2.073-1.548,2.073-0.568C163.76,0.894,161.687,1.935,161.687,0.969z"/>
		<path fill="#EDBC4C" d="M166.105,10.392c0-2.47,0-4.94,0-7.41c0-0.858,2.446-0.534,3.08-0.463c0.952,0.106,1.757,0.602,1.976,1.58
			c0.28,1.251-0.173,2.614-1.517,2.946c0.524,0.993,1.048,1.987,1.572,2.98c0.214,0.406-0.303,0.799-0.67,0.799
			c-0.313,0-0.444-0.296-0.564-0.533c-0.331-0.655-0.662-1.309-0.992-1.964c-0.134-0.266-0.373-1.113-0.706-1.113
			c-0.711,0-0.995-0.232-0.995,0.496c0,0.775,0,1.55,0,2.325c0,0.146,0.038,0.385-0.044,0.52
			C167.036,10.903,166.105,10.895,166.105,10.392z M167.288,6.26c0.669,0,1.658,0.164,2.247-0.216
			c1.185-0.764,0.341-2.486-0.894-2.486c-0.366-0.021-0.739,0-1.106,0c-0.333,0-0.247,0.06-0.247,0.387
			C167.288,4.716,167.288,5.488,167.288,6.26z"/>
		<path fill="#EDBC4C" d="M172.518,10.392c0-1.482,0-2.964,0-4.447c0-0.855,0-1.711,0-2.566c0-0.165,0-0.331,0-0.496
			c0-0.543,1.194-0.544,1.194-0.007c0.139,0.368,0,1.058,0,1.444c0,1.001,0,2.002,0,3.002c0,0.855,0,1.711,0,2.566
			c0,0.165,0,0.331,0,0.496C173.712,10.938,172.518,10.935,172.518,10.392z"/>
		<path fill="#EDBC4C" d="M175.313,10.392c0-2.397,0-4.795,0-7.192c0-1.051,1.487-0.709,2.245-0.709c0.672,0,1.345,0,2.017,0
			c0.673,0,0.976,1.067,0.279,1.067c-0.37,0.145-1.088,0-1.481,0c-0.617,0-1.235,0-1.852,0c-0.03,0-0.014,1.38-0.014,1.494
			c0,0.529-0.251,1.106,0.344,1.106c0.358,0,1.422-0.198,1.68,0.142c0.645,0.868-0.742,0.812-1.156,0.812
			c-0.594,0-0.868-0.206-0.868,0.408c0,0.71,0,1.42,0,2.13c0,0.158,1.832,0.073,2.057,0.073c0.411,0,0.823,0,1.234,0
			c0.483,0,0.639,0.803,0.225,1.028c-0.563,0.305-1.851,0.04-2.465,0.04C177.209,10.79,175.313,11.039,175.313,10.392z"/>
		<path fill="#EDBC4C" d="M181.321,10.392c0-2.481,0-4.963,0-7.444c0-0.967,1.263-0.241,1.503,0.232
			c0.242,0.475,0.483,0.95,0.725,1.425c0.591,1.161,1.181,2.322,1.772,3.483c0-1.734,0-3.468,0-5.201
			c0-0.545,1.195-0.548,1.195-0.01c0.059,0.156,0,0.45,0,0.613c0,1.147,0,2.294,0,3.441c0,1.02,0,2.039,0,3.059
			c0,0.894-0.929,1.085-1.371,0.237c-0.877-1.682-1.754-3.364-2.631-5.046c0,1.126,0,2.251,0,3.377c0,0.563,0,1.126,0,1.688
			C182.515,10.901,181.321,11.001,181.321,10.392z"/>
		<path fill="#EDBC4C" d="M188.037,8.326c0-2.148-0.661-5.836,2.503-5.836c0.925,0,1.956,0.335,2.382,1.23
			c0.15,0.316,0.341,1.029,0.041,1.318c-0.219,0.212-0.863,0.207-1.018-0.093c-0.172-0.332-0.06-0.7-0.336-1.014
			c-0.256-0.291-0.654-0.375-1.024-0.375c-0.899,0-1.353,0.6-1.353,1.464c-0.054,0.981,0,1.978,0,2.96
			c0,0.47-0.022,0.981,0.284,1.373c0.415,0.531,1.497,0.618,2,0.17c0.553-0.492,0.139-1.694,1.253-1.382
			c1.015,0.284-0.149,1.99-0.594,2.281C190.355,11.617,188.037,10.484,188.037,8.326z"/>
		<path fill="#EDBC4C" d="M194.327,10.392c0-2.397,0-4.795,0-7.192c0-1.051,1.487-0.709,2.245-0.709c0.672,0,1.345,0,2.017,0
			c0.673,0,0.976,1.067,0.279,1.067c-0.37,0.145-1.088,0-1.481,0c-0.617,0-1.235,0-1.852,0c-0.03,0-0.014,1.38-0.014,1.494
			c0,0.529-0.251,1.106,0.344,1.106c0.358,0,1.422-0.198,1.68,0.142c0.645,0.868-0.742,0.812-1.156,0.812
			c-0.594,0-0.868-0.206-0.868,0.408c0,0.71,0,1.42,0,2.13c0,0.158,1.832,0.073,2.057,0.073c0.411,0,0.823,0,1.234,0
			c0.483,0,0.639,0.803,0.225,1.028c-0.563,0.305-1.851,0.04-2.465,0.04C196.223,10.79,194.327,11.039,194.327,10.392z"/>
		<path fill="#EDBC4C" d="M199.917,9.541c0-0.704,0.594-0.714,0.991-0.351c0.563,0.515,1.272,0.773,2.035,0.546
			c0.705-0.211,1.027-0.956,0.746-1.635c-0.309-0.748-1.247-1.002-1.912-1.298c-1.379-0.613-2.441-2.457-1.045-3.713
			c0.631-0.567,4.486-1.132,4.01,0.389c-0.346,1.107-2.611-0.885-3.331,0.58c-0.706,1.437,2.096,1.978,2.841,2.598
			c1.179,0.987,0.918,3.207-0.418,3.909C202.955,11.029,199.917,11.092,199.917,9.541z"/>
	</g>
	<path fill="none" stroke="#EDBC4C" stroke-width="2" stroke-miterlimit="10" d="M105.513,18.966
		c1.682-5.193,3.364-10.386,5.045-15.578c-3.364,0-6.728,0-10.092,0C102.148,8.581,103.831,13.774,105.513,18.966z"/>
	<line fill="none" stroke="#EDBC4C" stroke-miterlimit="10" x1="0.258" y1="18.999" x2="91.213" y2="18.999"/>
	<line fill="none" stroke="#EDBC4C" stroke-miterlimit="10" x1="119.803" y1="18.999" x2="204.615" y2="18.999"/>
</g>
</svg>
